<svg width="522" height="149" viewBox="0 0 522 149" fill="none" xmlns="http://www.w3.org/2000/svg">
<path d="M83.4098 146.123C80.1914 148.644 73.777 149.476 65.348 148.474C58.4487 147.649 52.5804 145.889 52.5247 145.872V145.881C44.2684 143.346 36.6224 139.414 29.8624 134.359C32.1752 134.799 34.566 135.019 37.0264 135.019C39.0243 135.019 41.0751 134.874 43.1622 134.579H43.1817C49.2785 133.679 53.8288 132.217 57.844 130.928C63.2609 129.19 67.5437 127.814 73.7631 128.444C78.84 128.942 82.4457 130.814 84.477 134.003C85.9511 136.314 86.1099 138.595 86.1238 138.837V138.854L86.1294 138.952C86.2938 142.213 85.4077 144.558 83.4126 146.123H83.4098Z" fill="#006AFE"/>
<path d="M135.597 117.206C125.168 132.159 109.399 143.11 91.0586 147.29C92.2289 145.154 93.0147 142.335 92.8364 138.656C92.8169 137.982 92.6051 134.484 90.3731 130.772C88.2053 127.162 83.6717 122.667 74.429 121.759C66.822 120.994 61.4636 122.712 55.7932 124.531C51.8448 125.798 47.7598 127.11 42.2176 127.926C29.9739 129.644 19.8702 125.438 12.1461 115.415C13.8152 115.772 15.5456 115.735 17.2955 115.301C19.4856 114.866 29.2188 111.577 55.5201 86.7793C55.5201 86.7765 55.5257 86.7737 55.5257 86.7737C74.0863 70.7652 85.8424 69.0302 90.0416 69.0302H90.7187C94.1822 69.0218 99.6019 69.0162 104.893 73.4556C103.553 74.2939 102.054 75.3856 100.583 76.767C96.6733 80.4489 92.2289 86.9352 93.2599 96.9336C93.3212 97.6298 93.9175 103.342 97.4591 108.998C100.867 114.435 107.652 120.846 120.712 120.846C120.943 120.846 121.18 120.846 121.414 120.84C122.334 120.852 128.615 120.796 135.595 117.203H135.592L135.597 117.206Z" fill="#006AFE"/>
<path d="M148.967 74.578C148.967 81.1953 148.103 87.612 146.487 93.7224C146.487 93.7224 146.487 93.7252 146.487 93.728C144.77 99.0251 142.193 103.367 138.768 106.723C131.2 114.142 121.832 114.131 121.509 114.128H121.451L121.353 114.126C113.086 114.284 107.006 111.427 103.28 105.637C100.379 101.131 99.9558 96.41 99.953 96.3737L99.9447 96.2763C99.34 90.5084 101.051 85.6485 105.019 81.8219C108.145 78.8085 111.567 77.5468 111.589 77.5385L116.14 75.9789L113.069 72.2385C104.905 62.2903 95.3108 62.3071 90.7076 62.3126H90.0472C87.2106 62.3126 82.4624 62.8752 75.9672 65.5516C68.2097 68.7489 59.8866 74.1519 51.2207 81.6158L48.0636 83.8438C38.1132 90.3079 28.2686 90.8761 18.803 85.5371C11.4245 81.3735 6.96894 75.0486 6.92714 74.9902L6.86862 74.9094C3.59732 70.4645 2.06756 65.2481 2.32112 59.405C2.45766 56.244 3.10969 52.8825 4.2605 49.365C4.2605 49.3594 4.26328 49.3538 4.26607 49.3482C6.0494 44.3853 8.34266 39.6674 11.0845 35.2587C11.118 35.203 11.1542 35.1473 11.1876 35.0944C11.2406 35.0108 11.2935 34.9273 11.3492 34.8409C14.7348 29.5493 17.786 26.1154 17.8305 26.068L17.8222 26.0625C31.4926 10.1069 51.7807 0 74.4291 0C115.593 0 148.967 33.3899 148.967 74.578Z" fill="#006AFE"/>
<path d="M35.4354 95.6747C31.1108 99.2535 27.2098 102.2 23.7601 104.498C18.9423 107.706 16.6157 108.525 16.0834 108.686H16.0695L15.7379 108.767C14.2165 109.163 12.932 108.906 11.5777 107.943C7.64883 105.141 4.05987 96.9029 1.47125 84.7518C0.872162 81.9444 0.387318 79.2039 0 76.7225C0.445833 77.4466 0.922318 78.1596 1.43503 78.8586C1.92823 79.5604 6.91042 86.4701 15.2809 91.2632C19.5999 93.7391 25.2509 95.8752 31.8827 95.8752C33.0363 95.8752 34.2233 95.8084 35.4354 95.6719V95.6747Z" fill="#006AFE"/>
<path d="M196.557 101.158H184.466L170.985 49.5098H181.362L187.997 81.3763L190.563 94.4214L193.773 81.3763L203.189 49.5098H214.635L223.942 81.3763L227.258 94.4214L229.718 81.3763L236.353 49.5098H246.73L233.249 101.158H221.158L212.278 70.8961L208.962 57.1018L205.432 70.8961L196.551 101.158H196.557Z" fill="#006AFE"/>
<path d="M297.981 101.158H291.99C290.207 101.158 288.619 100.838 287.228 100.195C285.838 99.5543 284.748 98.521 283.965 97.0951C283.179 95.6691 282.789 93.7447 282.789 91.3217V69.8295L282.469 68.4397C282.469 65.1617 281.666 62.399 280.061 60.1514C278.456 57.9039 275.478 56.7843 271.128 56.7843C267.419 56.7843 264.335 57.7312 261.874 59.6167C259.414 61.5078 257.505 63.8778 256.151 66.7269L249.731 60.2043C250.87 58.4219 252.459 56.6228 254.493 54.8041C256.524 52.9855 259.04 51.4732 262.036 50.259C265.031 49.0475 268.42 48.4403 272.201 48.4403C278.476 48.4403 283.308 50.1893 286.699 53.679C290.087 57.1714 291.781 62.0564 291.781 68.3283V89.5003C291.781 90.6421 292.029 91.4442 292.531 91.9065C293.03 92.3716 293.779 92.6028 294.777 92.6028H297.987V101.158H297.981ZM264.708 102.228C260.428 102.228 257.093 101.089 254.705 98.8051C252.314 96.5241 251.121 93.6723 251.121 90.2494C251.121 86.8266 252.297 83.9775 254.652 81.6938C257.006 79.4128 260.035 77.4159 263.747 75.7059L284.183 66.5097L285.467 72.8178L267.6 81.2649C265.173 82.4067 263.39 83.5486 262.25 84.6877C261.111 85.8268 260.54 87.2193 260.54 88.8569C260.54 90.6393 261.144 92.0291 262.359 93.0261C263.571 94.026 265.391 94.5245 267.815 94.5245C270.025 94.5245 272.042 94.1875 273.859 93.5079C275.678 92.8312 277.244 91.887 278.565 90.6755C279.883 89.4641 280.92 88.0743 281.666 86.5063C282.416 84.9384 282.789 83.1921 282.789 81.2677L283.11 86.2947C282.681 88.648 281.753 91.0543 280.329 93.5135C278.902 95.9727 276.904 98.042 274.338 99.7158C271.769 101.39 268.562 102.228 264.708 102.228Z" fill="#006AFE"/>
<path d="M330.61 101.158H318.84L300.118 49.5098H310.283L320.554 80.201L324.94 94.3156L329.326 80.201L339.491 49.5098H349.441L330.61 101.158Z" fill="#006AFE"/>
<path d="M376.618 102.228C371.767 102.228 367.47 101.142 363.725 98.9666C359.98 96.7915 357.054 93.6723 354.953 89.6089C352.849 85.5455 351.796 80.7691 351.796 75.2798C351.796 69.7905 352.83 65.0336 354.9 61.0037C356.968 56.9765 359.838 53.8767 363.513 51.7016C367.186 49.5265 371.376 48.4403 376.083 48.4403C380.789 48.4403 385.122 49.4401 388.653 51.4342C392.183 53.4311 394.894 56.283 396.783 59.9899C398.673 63.6968 399.62 68.1167 399.62 73.2495C399.62 74.0349 399.584 74.8008 399.514 75.55C399.442 76.2991 399.369 76.923 399.3 77.4215H358.857V70.6845H393.629L391.383 73.8929C391.383 68.047 390.026 63.6272 387.318 60.6332C384.607 57.6393 380.825 56.141 375.977 56.141C371.128 56.141 367.668 57.6922 364.956 60.792C362.245 63.8918 360.891 68.5456 360.891 74.7479V75.9232C360.891 79.8445 361.515 83.1949 362.764 85.9744C364.012 88.7539 365.829 90.8761 368.219 92.3382C370.607 93.8004 373.408 94.5301 376.618 94.5301C380.112 94.5301 382.965 93.9953 385.178 92.9259C387.387 91.8564 389.098 90.5391 390.313 88.9683C391.525 87.4003 392.453 85.8686 393.094 84.3702L398.87 90.6783C396.945 93.8171 394.181 96.5241 390.578 98.8051C386.975 101.089 382.322 102.228 376.615 102.228H376.618Z" fill="#006AFE"/>
<path d="M439.739 56.7815H405.182V49.5098H439.739V56.7815ZM427.864 102.334C425.01 102.334 422.497 101.746 420.321 100.571C418.144 99.3955 416.45 97.7356 415.238 95.5995C414.023 93.4606 413.419 90.8956 413.419 87.8989V42.8786L422.834 35.9271V85.0108C422.834 88.364 423.511 90.5892 424.868 91.6949C426.222 92.8005 427.9 93.352 429.898 93.352C432.18 93.352 434.105 92.5861 435.674 91.0515C437.243 89.5198 438.385 87.9323 439.099 86.2919L442.203 95.4881C441.06 97.2705 439.296 98.8552 436.906 100.248C434.515 101.637 431.503 102.334 427.866 102.334H427.864Z" fill="#006AFE"/>
<path d="M460.707 40.9541H451.401V29.5131H460.707V40.9541ZM460.707 101.158H451.401V49.5098H460.707V101.158Z" fill="#006AFE"/>
<path d="M484.03 121.046H474.723V49.5098H484.03V121.049V121.046ZM500.827 102.228C496.761 102.228 493.515 101.301 491.091 99.4484C488.664 97.5964 486.828 95.243 485.582 92.3911C484.334 89.5393 483.565 86.5091 483.281 83.3007L484.03 78.9171C484.03 81.769 484.459 84.3535 485.315 86.6707C486.17 88.9878 487.597 90.8399 489.595 92.2296C491.59 93.6193 494.231 94.3156 497.511 94.3156C501.646 94.3156 505.177 92.7643 508.102 89.6646C511.025 86.562 512.488 81.7355 512.488 75.174C512.488 68.6124 511.025 63.7859 508.102 60.6834C505.177 57.5836 501.646 56.0324 497.511 56.0324C494.229 56.0324 491.59 56.7286 489.595 58.1184C487.597 59.5081 486.17 61.3629 485.315 63.6801C484.459 65.9973 484.03 68.5818 484.03 71.4337L483.281 67.1558C483.565 63.9475 484.331 60.9006 485.582 58.0125C486.831 55.1244 488.667 52.7739 491.091 50.9552C493.515 49.1366 496.725 48.2287 500.721 48.2287C505.143 48.2287 508.905 49.3343 512.009 51.5429C515.11 53.7542 517.535 56.8734 519.284 60.9006C521.032 64.9278 521.906 69.6874 521.906 75.1768C521.906 80.6661 521.032 85.3366 519.284 89.4C517.535 93.4634 515.094 96.6188 511.956 98.8636C508.816 101.108 505.11 102.233 500.83 102.233L500.827 102.228Z" fill="#006AFE"/>
</svg>
