<svg width="351" height="92" viewBox="0 0 351 92" fill="none" xmlns="http://www.w3.org/2000/svg">
<path d="M25.5713 71.6453H13.4809L0 19.9966H10.3768L17.0113 51.8631L19.5777 64.9083L22.7876 51.8631L32.2031 19.9966H43.6499L52.9566 51.8631L56.2725 64.9083L58.733 51.8631L65.3675 19.9966H75.7443L62.2634 71.6453H50.173L41.2925 41.383L37.9766 27.5887L34.4462 41.383L25.5658 71.6453H25.5713Z" fill="#006AFE"/>
<path d="M126.996 71.6453H121.005C119.221 71.6453 117.633 71.325 116.243 70.6817C114.852 70.0411 113.763 69.0079 112.98 67.5819C112.194 66.156 111.804 64.2315 111.804 61.8085V40.3163L111.483 38.9266C111.483 35.6486 110.681 32.8858 109.076 30.6383C107.471 28.3908 104.492 27.2712 100.143 27.2712C96.4338 27.2712 93.3492 28.2181 90.8888 30.1036C88.4283 31.9946 86.5196 34.3647 85.1654 37.2138L78.7454 30.6912C79.885 28.9088 81.4733 27.1096 83.5074 25.291C85.5388 23.4724 88.0549 21.9601 91.0504 20.7458C94.0458 19.5343 97.4341 18.9272 101.215 18.9272C107.49 18.9272 112.322 20.6762 115.713 24.1658C119.102 27.6583 120.796 32.5433 120.796 38.8152V59.9871C120.796 61.129 121.044 61.9311 121.545 62.3934C122.044 62.8585 122.794 63.0897 123.791 63.0897H127.001V71.6453H126.996ZM93.7226 72.7148C89.4426 72.7148 86.1072 71.5757 83.7192 69.292C81.3284 67.011 80.1358 64.1591 80.1358 60.7363C80.1358 57.3135 81.3117 54.4644 83.6663 52.1806C86.0208 49.8997 89.0497 47.9028 92.7613 46.1928L113.197 36.9966L114.482 43.3047L96.6149 51.7517C94.1879 52.8936 92.4046 54.0355 91.2649 55.1746C90.1253 56.3136 89.554 57.7062 89.554 59.3438C89.554 61.1262 90.1587 62.5159 91.3736 63.513C92.5857 64.5128 94.4053 65.0113 96.8295 65.0113C99.0391 65.0113 101.057 64.6744 102.873 63.9948C104.693 63.318 106.259 62.3739 107.58 61.1624C108.898 59.9509 109.934 58.5612 110.681 56.9932C111.431 55.4252 111.804 53.679 111.804 51.7545L112.124 56.7815C111.695 59.1349 110.767 61.5412 109.343 64.0004C107.917 66.4596 105.919 68.5289 103.353 70.2027C100.783 71.8765 97.5762 72.7148 93.7226 72.7148Z" fill="#006AFE"/>
<path d="M159.625 71.6453H147.855L129.133 19.9966H139.298L149.569 50.6879L153.955 64.8025L158.34 50.6879L168.505 19.9966H178.456L159.625 71.6453Z" fill="#006AFE"/>
<path d="M205.632 72.7148C200.781 72.7148 196.484 71.6286 192.739 69.4535C188.994 67.2784 186.069 64.1591 183.968 60.0957C181.864 56.0324 180.811 51.256 180.811 45.7667C180.811 40.2773 181.844 35.5205 183.915 31.4905C185.982 27.4633 188.852 24.3636 192.528 22.1885C196.2 20.0133 200.391 18.9272 205.097 18.9272C209.804 18.9272 214.137 19.927 217.667 21.9211C221.197 23.918 223.909 26.7699 225.798 30.4768C227.687 34.1837 228.635 38.6035 228.635 43.7364C228.635 44.5218 228.598 45.2876 228.529 46.0368C228.456 46.786 228.384 47.4098 228.314 47.9084H187.871V41.1713H222.644L220.398 44.3797C220.398 38.5339 219.041 34.114 216.332 31.1201C213.621 28.1262 209.84 26.6278 204.991 26.6278C200.143 26.6278 196.682 28.1791 193.971 31.2789C191.26 34.3786 189.906 39.0324 189.906 45.2347V46.41C189.906 50.3314 190.53 53.6818 191.778 56.4612C193.026 59.2407 194.843 61.3629 197.234 62.8251C199.622 64.2872 202.422 65.0169 205.632 65.0169C209.127 65.0169 211.98 64.4822 214.192 63.4127C216.402 62.3433 218.113 61.0259 219.328 59.4552C220.54 57.8872 221.468 56.3554 222.109 54.8571L227.885 61.1652C225.96 64.3039 223.195 67.011 219.592 69.292C215.99 71.5757 211.336 72.7148 205.63 72.7148H205.632Z" fill="#006AFE"/>
<path d="M268.754 27.2684H234.196V19.9966H268.754V27.2684ZM256.878 72.8206C254.025 72.8206 251.511 72.233 249.335 71.0577C247.159 69.8824 245.465 68.2225 244.253 66.0864C243.038 63.9475 242.433 61.3824 242.433 58.3857V13.3654L251.848 6.41396V55.4976C251.848 58.8508 252.526 61.0761 253.883 62.1817C255.237 63.2874 256.914 63.8389 258.912 63.8389C261.194 63.8389 263.12 63.073 264.689 61.5384C266.257 60.0066 267.4 58.4191 268.113 56.7788L271.217 65.975C270.075 67.7574 268.311 69.3421 265.92 70.7346C263.529 72.1244 260.517 72.8206 256.881 72.8206H256.878Z" fill="#006AFE"/>
<path d="M289.722 11.441H280.415V0H289.722V11.441ZM289.722 71.6453H280.415V19.9966H289.722V71.6453Z" fill="#006AFE"/>
<path d="M313.045 91.5333H303.738V19.9966H313.045V91.5361V91.5333ZM329.841 72.7148C325.776 72.7148 322.53 71.7874 320.106 69.9353C317.679 68.0833 315.842 65.7299 314.597 62.878C313.348 60.0261 312.579 56.996 312.295 53.7876L313.045 49.4039C313.045 52.2558 313.474 54.8404 314.329 57.1575C315.185 59.4747 316.611 61.3267 318.609 62.7165C320.604 64.1062 323.246 64.8025 326.526 64.8025C330.661 64.8025 334.191 63.2512 337.117 60.1514C340.04 57.0489 341.503 52.2224 341.503 45.6608C341.503 39.0993 340.04 34.2728 337.117 31.1702C334.191 28.0705 330.661 26.5192 326.526 26.5192C323.243 26.5192 320.604 27.2155 318.609 28.6052C316.611 29.995 315.185 31.8498 314.329 34.167C313.474 36.4841 313.045 39.0686 313.045 41.9205L312.295 37.6427C312.579 34.4343 313.346 31.3875 314.597 28.4994C315.845 25.6113 317.681 23.2607 320.106 21.4421C322.53 19.6234 325.74 18.7155 329.736 18.7155C334.158 18.7155 337.919 19.8212 341.023 22.0297C344.125 24.2411 346.549 27.3603 348.299 31.3875C350.046 35.4147 350.921 40.1743 350.921 45.6636C350.921 51.153 350.046 55.8235 348.299 59.8869C346.549 63.9502 344.108 67.1057 340.971 69.3504C337.83 71.5952 334.124 72.7204 329.844 72.7204L329.841 72.7148Z" fill="#006AFE"/>
</svg>
